<svg xmlns="http://www.w3.org/2000/svg" viewBox="0 0 32 32">
  <rect width="32" height="32" rx="7" fill="#212830"/>
  <g fill="#06E4DD">
    <path d="M12.5 17 C9.5 20, 7.3 23.2, 5.2 27 C8.4 24.6, 11.4 22.6, 14.6 20.6 Z" opacity="0.72"/>
    <path d="M19 5.5 C19 9.75, 23.25 14, 27.5 14 C23.25 14, 19 18.25, 19 22.5 C19 18.25, 14.75 14, 10.5 14 C14.75 14, 19 9.75, 19 5.5 Z"/>
    <path d="M8.5 8 C8.5 9.9, 9.6 11, 11.5 11 C9.6 11, 8.5 12.1, 8.5 14 C8.5 12.1, 7.4 11, 5.5 11 C7.4 11, 8.5 9.9, 8.5 8 Z"/>
  </g>
</svg>
